<mxfile host="app.diagrams.net" modified="2021-07-08T11:48:54.732Z" agent="5.0 (Windows NT 10.0; Win64; x64) AppleWebKit/537.36 (KHTML, like Gecko) Chrome/91.0.4472.124 Safari/537.36" etag="sAOgKbSq-O2_tZNUyKqw" version="14.8.3" type="github">
  <diagram id="f5LSf3xB3uiUx7hAMxcJ" name="Page-1">
    <mxGraphModel dx="1704" dy="591" grid="1" gridSize="10" guides="1" tooltips="1" connect="1" arrows="1" fold="1" page="1" pageScale="1" pageWidth="850" pageHeight="1100" math="0" shadow="0">
      <root>
        <mxCell id="0" />
        <mxCell id="1" parent="0" />
        <mxCell id="oLDgJtItbh9SOQEaaoOS-1" value="1" style="ellipse;whiteSpace=wrap;html=1;aspect=fixed;" vertex="1" parent="1">
          <mxGeometry x="380" y="100" width="60" height="60" as="geometry" />
        </mxCell>
        <mxCell id="oLDgJtItbh9SOQEaaoOS-2" value="3" style="ellipse;whiteSpace=wrap;html=1;aspect=fixed;" vertex="1" parent="1">
          <mxGeometry x="480" y="310" width="60" height="60" as="geometry" />
        </mxCell>
        <mxCell id="oLDgJtItbh9SOQEaaoOS-3" value="2" style="ellipse;whiteSpace=wrap;html=1;aspect=fixed;" vertex="1" parent="1">
          <mxGeometry x="480" y="190" width="60" height="60" as="geometry" />
        </mxCell>
        <mxCell id="oLDgJtItbh9SOQEaaoOS-4" value="4" style="ellipse;whiteSpace=wrap;html=1;aspect=fixed;" vertex="1" parent="1">
          <mxGeometry x="280" y="190" width="60" height="60" as="geometry" />
        </mxCell>
        <mxCell id="oLDgJtItbh9SOQEaaoOS-5" value="5" style="ellipse;whiteSpace=wrap;html=1;aspect=fixed;" vertex="1" parent="1">
          <mxGeometry x="280" y="310" width="60" height="60" as="geometry" />
        </mxCell>
        <mxCell id="oLDgJtItbh9SOQEaaoOS-6" value="" style="endArrow=classic;html=1;exitX=0;exitY=1;exitDx=0;exitDy=0;entryX=0.5;entryY=0;entryDx=0;entryDy=0;" edge="1" parent="1" source="oLDgJtItbh9SOQEaaoOS-1" target="oLDgJtItbh9SOQEaaoOS-4">
          <mxGeometry width="50" height="50" relative="1" as="geometry">
            <mxPoint x="380" y="250" as="sourcePoint" />
            <mxPoint x="430" y="200" as="targetPoint" />
          </mxGeometry>
        </mxCell>
        <mxCell id="oLDgJtItbh9SOQEaaoOS-7" value="" style="endArrow=classic;html=1;exitX=1;exitY=1;exitDx=0;exitDy=0;entryX=0.5;entryY=0;entryDx=0;entryDy=0;" edge="1" parent="1" source="oLDgJtItbh9SOQEaaoOS-1" target="oLDgJtItbh9SOQEaaoOS-3">
          <mxGeometry width="50" height="50" relative="1" as="geometry">
            <mxPoint x="420" y="240" as="sourcePoint" />
            <mxPoint x="470" y="190" as="targetPoint" />
          </mxGeometry>
        </mxCell>
        <mxCell id="oLDgJtItbh9SOQEaaoOS-8" value="" style="endArrow=classic;html=1;exitX=0.5;exitY=1;exitDx=0;exitDy=0;entryX=0.5;entryY=0;entryDx=0;entryDy=0;" edge="1" parent="1" source="oLDgJtItbh9SOQEaaoOS-4" target="oLDgJtItbh9SOQEaaoOS-5">
          <mxGeometry width="50" height="50" relative="1" as="geometry">
            <mxPoint x="380" y="280" as="sourcePoint" />
            <mxPoint x="430" y="230" as="targetPoint" />
          </mxGeometry>
        </mxCell>
        <mxCell id="oLDgJtItbh9SOQEaaoOS-9" value="" style="endArrow=classic;html=1;exitX=0.5;exitY=1;exitDx=0;exitDy=0;entryX=0.5;entryY=0;entryDx=0;entryDy=0;" edge="1" parent="1" source="oLDgJtItbh9SOQEaaoOS-3" target="oLDgJtItbh9SOQEaaoOS-2">
          <mxGeometry width="50" height="50" relative="1" as="geometry">
            <mxPoint x="550" y="300" as="sourcePoint" />
            <mxPoint x="600" y="250" as="targetPoint" />
          </mxGeometry>
        </mxCell>
        <mxCell id="oLDgJtItbh9SOQEaaoOS-10" value="" style="endArrow=classic;html=1;exitX=1;exitY=0.5;exitDx=0;exitDy=0;entryX=1;entryY=0.5;entryDx=0;entryDy=0;" edge="1" parent="1" source="oLDgJtItbh9SOQEaaoOS-2" target="oLDgJtItbh9SOQEaaoOS-1">
          <mxGeometry width="50" height="50" relative="1" as="geometry">
            <mxPoint x="600" y="350" as="sourcePoint" />
            <mxPoint x="650" y="300" as="targetPoint" />
            <Array as="points">
              <mxPoint x="660" y="340" />
              <mxPoint x="660" y="130" />
            </Array>
          </mxGeometry>
        </mxCell>
        <mxCell id="oLDgJtItbh9SOQEaaoOS-11" value="R1" style="text;html=1;align=center;verticalAlign=middle;resizable=0;points=[];autosize=1;strokeColor=none;" vertex="1" parent="1">
          <mxGeometry x="565" y="210" width="30" height="20" as="geometry" />
        </mxCell>
        <mxCell id="oLDgJtItbh9SOQEaaoOS-12" value="R2" style="text;html=1;align=center;verticalAlign=middle;resizable=0;points=[];autosize=1;strokeColor=none;" vertex="1" parent="1">
          <mxGeometry x="395" y="240" width="30" height="20" as="geometry" />
        </mxCell>
        <mxCell id="oLDgJtItbh9SOQEaaoOS-13" value="F" style="text;html=1;align=center;verticalAlign=middle;resizable=0;points=[];autosize=1;strokeColor=none;" vertex="1" parent="1">
          <mxGeometry x="340" y="150" width="20" height="20" as="geometry" />
        </mxCell>
        <mxCell id="oLDgJtItbh9SOQEaaoOS-14" value="V" style="text;html=1;align=center;verticalAlign=middle;resizable=0;points=[];autosize=1;strokeColor=none;" vertex="1" parent="1">
          <mxGeometry x="470" y="150" width="20" height="20" as="geometry" />
        </mxCell>
      </root>
    </mxGraphModel>
  </diagram>
</mxfile>
